# xmcd
#
# Track frame offsets: 
#        150
#        28855
#        45097
#        62384
#        73939
#        84752
#        108110
#        119924
#        133457
#        146361
#        165091
#        179449
#        192835
#        204325
#        214564
#        225937
#        243294
#        253797
#        266384
#        285536
#        295447
#        306231
#        320490
#        331807
#        343576
#
# Disc length: 4780 seconds
#
# Revision: 0
# Processed by: cddbd v1.5.2PL0 Copyright (c) Steve Scherf et al.
# Submitted via: ExactAudioCopyFreeDBPlugin 1.0
#
DISCID=6612aa19
DTITLE=Various Artist - Really the Blues - Disc 30
DYEAR=1900
DGENRE=50s
TTITLE0=Charles Mingus - Eulogy for Rudy Williams
TTITLE1=Frank Signorelli and George Wettling - A Blues Serenade
TTITLE2=Tom Brown - Tin Roof Blues
TTITLE3=Johnny Ace - So Lonely
TTITLE4=Buddy Holly - Down the Line
TTITLE5=Miles Davis - Walkin' (excerpt)
TTITLE6=Bill Doggett - Honky Tonk Part 2
TTITLE7=Rolf Lieberman - Concerto for Jazz Band and Symphony Orchestra
TTITLE7=(excerpt)
TTITLE8=Elmore James - Hand in Hand
TTITLE9=Russ Freeman and Shelley Manne - Billie's Bounce
TTITLE10=Saunders King - Long Long Time
TTITLE11=Soul Stirrers - I Have a Friend Above All Others
TTITLE12=Lowell Fulson - I Still Love You Baby
TTITLE13=Mary Lou Williams - Taurus
TTITLE14=Highway QCs - Nobody Knows
TTITLE15=Mel Powell - When Your Lover Has Gone
TTITLE16=Spiders - You Played the Part
TTITLE17=Jewels - Please Return
TTITLE18=Bobby Troup - One for My Baby
TTITLE19=Jack Dupree - That's My Pa
TTITLE20=Elmer Bernstein with Bud Shank - Louie's - Burlesque
TTITLE21=Chuck Berry with Otis Spann - I've Changed
TTITLE22=Nappy Brown - Sitting in the Dark
TTITLE23=David and the Harps - Baby Dee
TTITLE24=Tommy Burnette - Rockin' with Leroy
EXTD=
EXTT0=
EXTT1=
EXTT2=
EXTT3=
EXTT4=
EXTT5=
EXTT6=
EXTT7=
EXTT8=
EXTT9=
EXTT10=
EXTT11=
EXTT12=
EXTT13=
EXTT14=
EXTT15=
EXTT16=
EXTT17=
EXTT18=
EXTT19=
EXTT20=
EXTT21=
EXTT22=
EXTT23=
EXTT24=
PLAYORDER=
